<svg version="1" xmlns="http://www.w3.org/2000/svg" width="262.551" height="40"><rect x="5.131" y="6.283" width="146.465" height="33.717" fill="none"/><path d="M36.222 7.312c0 .363-.142.696-.424.999-.283.303-.596.454-.938.454-.182 0-.374-.03-.575-.091-.202-.061-.363-.116-.484-.167l-.363-.151c-.657 11.413-2.216 19.744-4.678 24.991-.646 1.362-1.413 2.044-2.301 2.044-2.503 0-4.365-4.93-5.585-14.789-1.604 4.773-2.927 8.129-3.966 10.066-1.171 2.199-2.326 3.299-3.466 3.299-.787 0-1.524-.474-2.21-1.422-.656-.908-1.368-2.397-2.134-4.466-1.525-4.138-2.286-10.348-2.286-18.633v-1.09c-.203.02-.47.066-.803.136-.282.061-.484.091-.605.091-1.009 0-1.514-.52-1.514-1.559 0-1.221 1.614-1.832 4.844-1.832 1.503 0 2.709.189 3.618.567.908.379 1.362.851 1.362 1.416 0 1.08-.484 1.62-1.453 1.62-.242 0-.611-.07-1.105-.212-.545-.161-.984-.257-1.317-.288l-.061 3.785c0 7.518 1.251 13.643 3.754 18.375 1.554-2.148 3.32-6.457 5.298-12.926.353-1.15.706-2.568 1.06-4.253.292-1.393.524-2.28.696-2.664.272-.615.671-.923 1.196-.923.736 0 1.216.348 1.438 1.044.151.495.227 1.524.227 3.088 0 .252-.005.553-.015.9l-.015.644c0 6.136 1.004 11.489 3.012 16.06 2.119-5.408 3.461-13.199 4.026-23.371-.151.01-.409.056-.772.136-.303.071-.54.106-.711.106-.989 0-1.483-.515-1.483-1.544 0-1.181 1.352-1.771 4.057-1.771 1.372 0 2.513.242 3.421.727.836.453 1.255.988 1.255 1.604zM52.812 19.83c0 2.967-.868 5.331-2.604 7.091-1.736 1.762-4.052 2.642-6.948 2.642-2.402 0-4.284-.819-5.646-2.46-1.362-1.64-2.043-3.917-2.043-6.834 0-3.067.822-5.449 2.467-7.145 1.614-1.665 3.854-2.498 6.721-2.498 2.401 0 4.344.843 5.828 2.528 1.483 1.686 2.225 3.911 2.225 6.676zm-3.012.03c0-2.028-.492-3.615-1.476-4.76-.984-1.146-2.329-1.718-4.034-1.718-3.805 0-5.707 2.286-5.707 6.857 0 2.109.414 3.731 1.241 4.866.827 1.136 2.013 1.703 3.557 1.703 1.998 0 3.567-.61 4.708-1.831 1.14-1.221 1.711-2.927 1.711-5.117zM67.071 15.743c0 .384-.116.707-.348.969-.232.263-.51.394-.833.394-.242 0-.601-.176-1.075-.53-.475-.353-.903-.53-1.287-.53-.959 0-1.736.421-2.331 1.264-.596.842-.893 1.98-.893 3.413v1.982c0 2.211-.232 3.967-.696 5.268-.434 1.222-.994 1.832-1.68 1.832-.918 0-1.377-.454-1.377-1.362 0-.182.141-.851.424-2.006.282-1.155.424-2.242.424-3.262 0-2.825-.404-5.086-1.211-6.781-.021-.05-.298-.56-.833-1.529-.272-.494-.409-.888-.409-1.181 0-.323.156-.625.469-.908.313-.282.651-.424 1.014-.424 1.069 0 1.958 1.312 2.664 3.936 1.049-2.018 2.578-3.027 4.586-3.027 1.009 0 1.826.235 2.452.704.627.469.94 1.061.94 1.778zM73.549 30.652c0 .687-.045 1.155-.136 1.408-.172.443-.549.666-1.131.666-.954 0-1.516-.777-1.687-2.332-.291-2.623-.437-6.215-.437-10.777 0-5.096.07-8.229.211-9.4.16-1.281.667-1.922 1.521-1.922 1.005 0 1.507.611 1.507 1.832 0 .303-.056 1.506-.167 3.61-.111 2.104-.167 4.044-.167 5.82 0 1.554.081 3.565.242 6.032.163 2.468.244 4.155.244 5.063zM93.817 7.932c0-.061-.061.696-.182 2.271-.131 1.827-.242 3.769-.333 5.828-.111 2.967-.167 6.126-.167 9.476 0 .687.005 1.391.015 2.111l.015 1.143c0 1.504-.477 2.256-1.43 2.256-1.045 0-1.567-.848-1.567-2.543 0-.394.01-.701.03-.924-1.905 1.877-4.112 2.816-6.623 2.816-2.096 0-3.757-.679-4.982-2.036s-1.837-3.222-1.837-5.593c0-3.229.89-5.838 2.668-7.826 1.779-1.988 4.11-2.982 6.993-2.982 1.341 0 2.727.308 4.158.923.07-2.795.167-4.47.288-5.025.223-1.029.781-1.544 1.673-1.544.855-.001 1.281.55 1.281 1.649zm-3.39 7.871c-1.32-.827-2.646-1.241-3.976-1.241-2.056 0-3.678.709-4.867 2.126-1.189 1.418-1.784 3.343-1.784 5.774 0 1.666.4 2.96 1.202 3.883.801.924 1.907 1.385 3.317 1.385 1.773 0 3.124-.59 4.051-1.771.262-.394.519-.792.771-1.196.292-.424.655-.676 1.088-.756.001-2.835.066-5.57.198-8.204zM123.909 10.066c0 .908-.621 1.362-1.862 1.362.171 0-.929-.136-3.3-.409-2.432-.282-4.97-.434-7.614-.454.353 1.695.56 4.072.621 7.129.434.021 1.034.03 1.801.03 1.271 0 2.507-.053 3.708-.159 1.201-.105 1.761-.159 1.68-.159 1.14 0 1.71.51 1.71 1.529 0 .888-.934 1.443-2.8 1.665-.525.061-1.887.091-4.087.091h-2.013c-.071 4.965-.222 8.27-.454 9.915-.303 2.139-.903 3.209-1.801 3.209-.949 0-1.423-.49-1.423-1.469 0 .333.119-.805.355-3.413.237-2.608.356-5.396.356-8.363 0-4.41-.217-7.654-.651-9.733-1.171.232-1.998.348-2.482.348-1.12 0-1.68-.52-1.68-1.559 0-1.342 2.81-2.013 8.431-2.013 3.612 0 6.695.227 9.249.681 1.504.274 2.256.864 2.256 1.772zM128.193 30.652c0 .687-.045 1.155-.136 1.408-.172.443-.549.666-1.131.666-.954 0-1.516-.777-1.687-2.332-.291-2.623-.437-6.215-.437-10.777 0-5.096.07-8.229.211-9.4.16-1.281.667-1.922 1.521-1.922 1.005 0 1.507.611 1.507 1.832 0 .303-.056 1.506-.167 3.61-.111 2.104-.167 4.044-.167 5.82 0 1.554.081 3.565.242 6.032.163 2.468.244 4.155.244 5.063zM143.617 11.58c0 1.271-.515 3.472-1.544 6.6-.949 2.887-2.654 6.545-5.116 10.975-.495.998-.994 1.998-1.499 2.996-.434.777-.949 1.166-1.544 1.166-.354 0-.673-.151-.961-.454-.287-.303-.431-.636-.431-.999 0-.656.445-1.751 1.335-3.285 2.033-3.548 3.084-5.383 3.155-5.504-1.976-2.661-3.538-5.14-4.687-7.438-.918-1.826-1.377-3.063-1.377-3.708 0-.908.434-1.362 1.303-1.362.545 0 1.091.475 1.636 1.423.495 1.06.985 2.119 1.47 3.179.865 1.847 1.86 3.568 2.985 5.164.747-1.928 1.342-3.937 1.786-6.026.474-2.17.716-3.275.726-3.315.293-.827.749-1.241 1.366-1.241.932-.002 1.397.608 1.397 1.829z"/><rect x="148.858" y="23.142" width="128.788" height="12.182" fill="none"/><path d="M156.998 30.51c0 .13-.042.242-.125.334-.083.094-.191.14-.325.14l-.142-.039-.151-.144-.176-.228c-.121-.186-.23-.38-.33-.583-.099-.204-.18-.384-.242-.54l-.051-.124-.054-.117-.056-.133-.063-.173c-.094-.28-.163-.464-.205-.552l-.132.105-.134.053-.146.02-.164.003-.122.02-.159.044-.168.054-.156.049-.493.122-.513.105-.552.098-.61.1c-.098.017-.19.08-.278.19l-.527.732c-.26.371-.482.643-.664.815-.179.173-.353.259-.522.259-.215 0-.394-.042-.537-.127-.163-.104-.244-.215-.244-.332 0-.062.035-.106.105-.134l.286-.076c.039-.003.128-.083.269-.239.133-.149.234-.273.303-.371.137-.179.276-.37.417-.573l.476-.687.225-.337.161-.239.154-.22.198-.273.117-.166.161-.22.168-.225.129-.176.149-.195.212-.278.154-.229.31-.498c.182-.303.301-.524.356-.664.381-.925.667-1.387.859-1.387l.205.022.122.072.059.137.015.208v.146l-.005.103-.01.2-.015.288c.163.342.317.71.464 1.104l.237.652.266.778.249.718.176.483.164.425.227.542c.033.075.155.256.366.542.208.287.312.492.312.616zm-2.163-2.886l-.19-.579-.212-.619-.225-.599-.227-.513-.518.713-.471.686-.449.706s-.299.498-.452.771l.098.02.188-.013.234-.029.229-.036.178-.034.203-.049.164-.039.168-.041.217-.052.562-.149.503-.144zM166.505 27.121c0 .124-.028.249-.083.376l-.19.356-.327.461c-.127.172-.268.345-.422.521s-.321.348-.498.515c-.177.168-.361.317-.552.447s-.385.235-.583.314c-.199.08-.396.12-.591.12-.211 0-.385-.044-.52-.132s-.246-.203-.332-.347-.153-.307-.2-.491l-.129-.563c-.045-.234-.09-.433-.134-.596s-.089-.296-.137-.397c-.047-.104-.097-.177-.149-.223l-.166-.068c-.114 0-.233.051-.356.151s-.254.237-.391.407c-.137.172-.281.367-.432.589l-.476.688-.313.415-.315.366-.291.285-.239.174-.19-.066-.137-.131-.083-.242-.029-.396.022-.459.059-.569.078-.576.085-.48.046-.264.034-.246.034-.205.046-.149c.065-.134.13-.241.195-.325.065-.082.14-.124.225-.124l.105.01.127.042.107.09.046.151c0 .156-.026.337-.078.542l-.156.63-.073.3-.081.345-.063.345-.027.295-.002.063-.005.093-.002.093.01.068c.107-.075.221-.192.342-.352l.364-.521.359-.561c.117-.188.228-.347.332-.477l.303-.371s.192-.197.293-.271c.101-.072.209-.128.325-.166.116-.037.25-.056.403-.056.169 0 .31.043.422.13.112.086.205.199.278.339s.131.301.173.483l.107.557.103.555c.036.167.084.311.144.43.06.118.136.211.227.277.091.067.208.101.352.101.195 0 .387-.054.574-.161s.393-.264.618-.469c.375-.339.694-.661.959-.967l.73-.83.071.044.054.083zM170.572 26.472l-.005.192-.015.252-.022.283-.027.303-.024.275-.015.203c-.023.446-.07.904-.142 1.375-.072.47-.161.918-.269 1.345-.172.706-.423 1.311-.752 1.812-.332.508-.791.762-1.377.762-.384 0-.771-.076-1.162-.229-.387-.149-.714-.359-.981-.63-.16-.188-.239-.319-.239-.391 0-.081.024-.174.073-.278.052-.101.111-.151.176-.151l.093.059c.111.156.216.28.317.371.433.384.996.576 1.689.576.273 0 .513-.13.718-.391.104-.127.196-.264.276-.41s.15-.3.212-.459l.166-.488.132-.508.076-.381.032-.19.034-.396.039-.376c-.091.042-.278.149-.562.322l-.454.273-.366.215c-.215.127-.458.247-.728.361-.273.114-.498.171-.674.171-.306 0-.542-.122-.708-.366s-.249-.525-.249-.845c0-.228.024-.481.073-.762l.081-.393.09-.345.115-.386.159-.518.107-.281.134-.199.178-.12.249-.039c.094 0 .169.054.225.161.052.101.078.205.078.313l-.044.176-.068.112-.112.181-.107.178-.049.11-.068.205-.054.146-.044.14-.059.188-.09.383-.027.369s.026.288.078.474c.055.192.13.288.225.288.287 0 .633-.083 1.04-.249.407-.169.775-.389 1.104-.659s.527-.542.596-.815l.029-.176.017-.261.012-.301.012-.301.017-.258.029-.174c.084-.3.221-.449.41-.449.179 0 .29.046.332.137.047.097.07.252.07.464zM177.008 25.212l.093.063.039.117c0 .062-.023.135-.071.217-.047.084-.111.167-.193.252l-.288.246c-.111.08-.228.147-.352.203-.179.078-.377.153-.596.225s-.448.135-.691.19-.495.104-.757.144c-.262.041-.525.071-.789.091l-.051.093-.056.234-.056.314-.051.338-.044.295-.029.19-.076.466-.054.381-.037.345-.02.352-.002.183.002.159-.002.159-.012.183-.061.083-.129.105-.144.09-.1.039c-.082 0-.148-.027-.2-.08l-.122-.184-.059-.2-.015-.132c0-.264.018-.518.054-.762l.129-.744.156-.787c.054-.271.1-.568.139-.891-.026-.059-.066-.096-.12-.112l-.164-.024-.056.002-.051.003-.127.007-.244.016-.3.02-.298.02-.242.014-.127.008-.154-.049-.134-.115-.095-.137-.037-.119.037-.168.093-.115.127-.066.139-.021.215-.005.313-.013.356-.017.347-.024.283-.029.171-.029c.068-.022.14-.095.215-.215s.142-.305.2-.552l.049-.234.063-.337.068-.383.063-.377.046-.316.022-.208.051-.142.12-.145.137-.109.103-.044.142.049.12.114.081.135.029.103-.012.11-.032.207-.046.264-.049.269-.042.228-.029.139-.115.493-.073.327-.039.213-.012.144.029.151.098.044.156-.015.349-.044.471-.073.522-.1.508-.125s.304-.096.425-.151l.325-.161.264-.142.19-.101.116-.04zM184.752 27.048c0 .065-.049.173-.146.322l-.142.198-.171.217-.176.205-.156.166-.601.588c-.208.201-.425.384-.649.55s-.457.303-.696.41-.486.164-.74.171c-.381 0-.656-.158-.825-.474-.082-.156-.152-.343-.212-.56-.06-.216-.105-.482-.134-.798l-.044-.396-.063-.311c-.026-.086-.061-.152-.105-.199-.044-.048-.102-.071-.173-.071-.059 0-.133.027-.225.083l-.303.229-.347.349c-.121.136-.239.283-.356.442l-.261.366-.325.469-.344.506-.32.476-.122.142-.203.197-.212.174-.161.073-.19-.017-.164-.057-.115-.1-.044-.154.02-.193.044-.273.054-.277.049-.213.142-.813.146-.838.142-.835.122-.806.039-.295.049-.387.051-.432.054-.438.046-.391.034-.3.059-.259.11-.262.146-.202.164-.083.168.034.166.107.127.188c.034.076.051.168.051.275 0 .261-.021.523-.063.789-.042.265-.094.526-.154.783l-.193.744c-.068.24-.127.465-.176.677l-.061.259-.09.408-.103.498-.1.521-.078.486-.042.386.032.068.056.039h.02c.14-.234.286-.466.437-.693l.452-.651c.15-.207.297-.4.442-.579s.282-.335.413-.469c.218-.225.445-.402.681-.532s.45-.195.642-.195l.105.034.137.088.129.12.083.134c.065.176.113.352.144.527l.076.557.071.554c.028.178.063.335.105.472s.094.247.156.329c.062.084.137.125.225.125.176 0 .354-.034.535-.103s.358-.154.532-.259.338-.217.493-.34l.417-.344.364-.314.432-.394c.319-.29.503-.435.552-.435s.071.073.071.207zM189.288 27.653v.01c0 .071-.033.166-.098.283l-.261.396-.378.469-.449.503c-.186.195-.378.384-.579.563-.2.182-.417.356-.652.525-.456.339-.863.508-1.221.508-.394 0-.7-.132-.918-.396-.218-.267-.366-.589-.444-.967-.078-.374-.117-.76-.117-1.157 0-.166.02-.425.059-.776l.059-.454.063-.308c.045-.153.142-.286.288-.4.15-.12.306-.181.469-.181.088 0 .132.083.132.249l-.032.376-.066.415c-.042.257-.073.487-.093.69-.02.204-.029.381-.029.53 0 .332.045.664.137.996.091.342.255.513.493.513.241 0 .521-.088.84-.264.16-.091.319-.192.479-.303s.319-.234.479-.371c.166-.137.322-.274.469-.412l.439-.428.388-.41.295-.352.039-.073.054-.054.01.005.059.026.044.081.042.168zm-3.198-3.969c0 .212-.055.393-.166.542-.107.149-.265.225-.474.225-.13 0-.275-.02-.435-.059-.156-.039-.234-.103-.234-.19 0-.159.05-.312.149-.457.099-.145.219-.263.359-.354l.22-.098c.186 0 .329.025.43.076.101.05.151.155.151.315zM197.037 27.341l-.032.188-.078.189-.105.186-.112.174c-.094.146-.205.295-.332.447-.127.15-.263.298-.408.441s-.294.278-.447.405-.303.239-.449.337l-.334.22-.32.176-.337.117s-.246.044-.386.044c-.27 0-.49-.068-.659-.205-.084-.068-.159-.157-.222-.266-.063-.109-.119-.23-.166-.364l-.122-.425-.085-.444-.083-.491-.09-.365c-.034-.1-.076-.176-.125-.23-.049-.053-.112-.08-.19-.08l-.176.02-.173.078-.198.166-.251.283-.33.43-.435.605-.288.376-.339.391-.339.327s-.208.154-.293.181c-.287-.062-.43-.418-.43-1.069 0-.173.02-.435.059-.786l.068-.501.098-.521.134-.508c.05-.165.11-.317.178-.457l.103-.154.11-.082.117-.035.125-.007c.052 0 .099.036.139.107s.061.171.061.298l-.02.22-.054.21-.073.232-.078.285-.066.293-.068.327-.054.325-.022.285.029.181c.091-.01.241-.146.449-.41l.354-.439.417-.527.33-.4s.222-.231.339-.325c.117-.092.242-.166.374-.219.132-.055.277-.081.437-.081.169 0 .31.036.422.11.112.072.203.174.271.303.068.128.121.282.159.461s.067.376.09.591l.056.542s.053.34.105.48c.052.143.127.257.225.345s.238.132.42.132c.14 0 .287-.032.439-.098s.314-.155.483-.271c.169-.115.344-.251.525-.407s.367-.327.559-.513l.247-.271.264-.314.242-.259.181-.107.095.029.065.094zM200.23 26.213l-.039.178-.085.303c-.031.129-.06.293-.085.494-.026.199-.039.448-.039.744l-.005.435-.005.874c0 .769-.095 1.414-.286 1.936-.19.523-.455.94-.793 1.253-.101.095-.206.179-.315.251-.109.074-.227.137-.354.191-.127.053-.265.094-.415.121-.15.028-.316.042-.498.042-.146 0-.305-.029-.476-.088s-.343-.133-.515-.222c-.172-.09-.338-.188-.496-.296l-.422-.313-.295-.271-.11-.169.046-.183c.031-.051.089-.076.173-.076.088 0 .192.031.313.093l.352.205.393.228.442.212.415.159c.13.04.234.061.313.061.195 0 .361-.021.498-.066.137-.043.255-.104.356-.183s.187-.169.259-.273l.21-.342c.082-.14.15-.31.208-.511.057-.199.104-.42.142-.661s.066-.498.085-.771.033-.552.039-.835c-.156.166-.342.334-.557.503s-.443.32-.686.454-.491.242-.745.327-.498.127-.732.127c-.14 0-.254-.038-.342-.114-.088-.077-.157-.167-.208-.271l-.105-.317-.034-.249v-.029c0-.104.022-.227.066-.366l.173-.437c.072-.152.152-.302.242-.449l.261-.408c.14-.205.313-.418.518-.64s.429-.424.671-.608c.243-.184.5-.335.771-.453.272-.119.544-.179.818-.179.133 0 .254.016.361.046.107.031.199.074.276.127.077.055.136.117.178.188s.063.147.063.228zm-.849.137l-.1-.049-.139-.015c-.114 0-.239.022-.376.065-.137.045-.255.104-.356.179-.215.166-.405.335-.571.505-.166.172-.322.35-.469.535l-.159.223-.181.297-.178.34-.159.35-.112.332-.042.28.239.039.283-.034.283-.088.288-.122.303-.137.293-.151.317-.203.322-.229.303-.232.063-.164.051-.295.037-.371.027-.396.02-.368.013-.291zM210.836 27.653c.003.068-.027.161-.09.278s-.15.25-.259.398c-.109.147-.236.307-.381.476l-.457.508c-.182.195-.375.384-.579.563-.204.182-.421.356-.652.525-.456.339-.863.508-1.221.508-.394 0-.7-.132-.918-.396-.218-.267-.366-.589-.444-.967-.078-.374-.117-.76-.117-1.157 0-.166.02-.425.059-.776l.059-.454.063-.308c.045-.153.142-.286.288-.4.15-.12.306-.181.469-.181.088 0 .132.083.132.249l-.032.376-.066.415c-.042.257-.073.487-.093.69-.02.204-.029.381-.029.53 0 .329.045.661.137.996.091.342.255.513.493.513.241 0 .521-.088.84-.264.16-.091.319-.192.479-.303s.319-.234.479-.371l.469-.412.439-.428.386-.41.298-.352.017-.031.027-.045.029-.036.029-.01c.045 0 .08.036.103.107l.043.169zm-3.198-3.969c0 .212-.055.393-.166.542-.107.149-.265.225-.474.225-.13 0-.275-.02-.435-.059-.156-.039-.234-.103-.234-.19 0-.159.05-.312.149-.457.099-.145.219-.263.359-.354l.22-.098c.186 0 .329.025.43.076.1.05.151.155.151.315zM212.975 29.772c0 .166-.029.328-.088.485-.059.158-.138.308-.237.447s-.213.27-.342.389c-.128.118-.262.221-.4.307-.138.087-.277.153-.417.201-.14.047-.269.07-.386.07-.163 0-.27-.036-.322-.107s-.078-.173-.078-.303c0-.12.023-.213.068-.275.045-.064.111-.118.195-.164l.054-.012.085-.01.093-.006.076-.002.098-.015.137-.042.151-.068.146-.095c.13-.104.222-.221.276-.349.054-.129.081-.244.081-.345 0-.127-.041-.246-.122-.356s-.184-.219-.308-.324l-.4-.318c-.143-.105-.277-.218-.4-.336-.124-.119-.226-.245-.308-.379s-.122-.281-.122-.444l.032-.259.083-.269.117-.257.139-.227.256-.327.281-.286c.094-.082.187-.149.278-.199.091-.051.176-.076.254-.076.221 0 .332.13.332.391 0 .091-.037.197-.11.317s-.16.231-.261.332l-.41.384-.327.324c.075.11.156.212.244.303l.276.264.293.249.295.254.261.257.222.268c.065.094.117.19.156.291s.059.207.059.317zM225.719 27.082c0 .101-.034.222-.103.361l-.085.115-.127.119-.13.105-.093.07c-.107.088-.246.187-.415.295l-.563.348-.657.371-.693.368-.674.342-.596.283c-.13.059-.254.124-.371.198l-.345.205c-.111.063-.225.116-.339.158s-.234.063-.361.063l-.218-.026-.188-.086-.135-.148c-.033-.061-.051-.133-.051-.218l.047-.127.119-.104.161-.086.171-.068.207-.07.242-.074.236-.075.198-.078c.104-.056.202-.125.293-.21l.254-.278.22-.315.19-.314.112-.229.096-.254.063-.241.022-.193c0-.225-.049-.403-.146-.537s-.22-.2-.366-.2c-.091 0-.196.03-.314.091-.119.06-.238.132-.357.217l-.332.266-.246.237c-.149.159-.291.333-.422.521-.133.187-.257.379-.374.576-.117.196-.228.395-.332.593l-.288.571-.115.508c-.037.186-.065.389-.085.61-.036.439-.063.832-.081 1.177-.018.345-.054.661-.109.947-.02.104-.066.196-.142.275-.075.08-.173.12-.293.12l-.127-.026-.14-.076-.111-.109-.047-.135.021-.398.052-.476.056-.435.037-.273c.046-.335.086-.697.122-1.086.036-.39.065-.813.088-1.272l.013-.388.014-.488.016-.459.017-.301c.046-.622.208-.933.488-.933l.159.042.134.107.093.148.034.161c0 .114-.013.237-.036.368l-.081.406-.081.407c-.023.134-.036.256-.036.366l.029.142c.228-.41.451-.771.669-1.081.218-.312.437-.569.654-.774.14-.13.278-.25.415-.358.137-.109.274-.204.413-.283.138-.08.281-.143.43-.186.147-.045.305-.068.471-.071.114-.003.232.024.354.083.123.059.232.146.33.264s.178.26.242.428c.063.167.093.356.09.568.003.163-.021.325-.076.488-.053.163-.125.323-.215.48-.089.158-.192.311-.31.457s-.239.281-.366.405c.267-.101.541-.225.822-.371.282-.146.563-.305.846-.474.281-.169.558-.345.83-.527l.778-.532.181-.132.151-.054.081.065.011.134zM231.607 26.74l-.037.168-.095.166-.13.152-.144.114c-.114.075-.276.141-.485.198-.211.057-.47.085-.779.085-.247 0-.496-.032-.747-.095-.251-.064-.491-.169-.723-.315.075.114.123.223.144.327.021.104.032.228.032.371 0 .257-.065.53-.195.82-.127.293-.291.564-.493.815s-.415.459-.64.625c-.127.095-.267.177-.417.247-.152.069-.311.127-.477.17-.166.045-.339.077-.518.098-.179.021-.359.032-.542.032-.127 0-.251-.041-.371-.122s-.228-.181-.322-.298-.17-.242-.228-.376c-.057-.134-.085-.254-.085-.361 0-.264.035-.517.104-.76.07-.242.165-.477.283-.703.119-.226.257-.447.413-.664.156-.216.322-.432.498-.646.098-.12.209-.238.335-.354.125-.116.256-.22.393-.311s.275-.165.415-.223c.14-.057.273-.085.4-.085.104 0 .193.015.269.044l.213.125.205.202.241.273.241.13c.133.057.289.111.469.166.182.053.371.101.569.141.198.041.379.062.542.062l.449-.017.398-.057.383-.107.41-.166.022.129zm-3.647 1.172l-.02-.311c-.017-.115-.045-.225-.085-.326-.041-.104-.095-.187-.162-.252-.066-.065-.148-.091-.246-.078-.149-.059-.273-.12-.371-.186s-.173-.098-.225-.098l-.127.037-.142.1-.149.148-.148.179-.271.347-.234.311-.212.322-.205.378-.078.21-.059.252-.036.258-.013.232.044.154.115.176.16.144.179.059.425-.022c.117-.014.226-.04.324-.078.1-.037.2-.088.301-.153l.352-.254.193-.171.188-.207.176-.225.156-.228.083-.181.054-.215.027-.195.006-.127zM235.631 27.302l-.044.173-.117.198-.166.208-.186.207-.156.168-.188.191-.246.244-.332.324-.379.35-.42.358-.412.337-.347.283-.669.545c-.212.17-.42.324-.625.461-.407.273-.729.41-.967.41-.081 0-.176-.021-.283-.063-.11-.042-.166-.101-.166-.176 0-.212.08-.378.239-.498.156-.114.4-.237.732-.371.325-.13.569-.257.732-.381s.244-.293.244-.508c0-.107-.112-.325-.337-.654l-.295-.456-.223-.374c-.124-.228-.186-.467-.186-.718 0-.218.041-.447.122-.688.039-.137.102-.274.188-.413.086-.138.18-.262.28-.371.101-.108.203-.195.308-.261s.195-.096.273-.093c.286 0 .43.169.43.508 0 .13-.047.257-.142.381l-.166.184-.225.202-.208.181-.139.132c0 .169.052.368.156.596l.19.361.249.42.239.403.146.261.054.02c.046 0 .125-.033.236-.101l.4-.268.506-.391c.183-.148.364-.306.547-.472.188-.169.345-.317.469-.444l.352-.356.246-.257.091-.09.073.029.061.076.042.098.019.095zM235.558 26.311l.166-.207.205-.191.208-.139.168-.054.139.029.117.078.084.11.031.124c0 .081-.021.161-.066.239l-.166.229-.217.218-.22.202-.169.183-.07.159c.049.107.115.211.2.31.085.1.182.196.29.291l.352.283.389.288.193.169.139.153.096.112.061.044.105-.042.16-.111.203-.169.229-.21c.188-.176.379-.367.571-.574l.537-.58c.166-.182.312-.332.438-.452.125-.12.215-.181.271-.181l.083.021.041.057.016.078.002.083-.076.186-.197.308-.278.379-.317.4-.313.368-.269.283-.241.231-.228.221-.261.254-.345.334-.3.317-.279.319-.283.318-.31.31c-.183.163-.355.299-.521.407-.164.109-.327.164-.49.164-.137 0-.251-.026-.342-.078s-.137-.125-.137-.22c0-.098.037-.188.112-.273s.168-.165.278-.241l.361-.221.366-.207c.234-.14.408-.295.522-.467.114-.17.171-.342.171-.515 0-.124-.072-.264-.218-.42-.145-.156-.386-.342-.725-.557-.107-.068-.205-.144-.293-.228l-.223-.248-.141-.242-.052-.205.02-.322.071-.281.137-.287.215-.337zM244.537 27.912l-.176.275-.264.348-.305.365-.296.33c-.31.339-.601.631-.874.877-.273.245-.531.448-.773.607-.243.159-.472.277-.687.354-.215.077-.42.115-.615.115-.166 0-.312-.034-.437-.103-.126-.068-.231-.162-.318-.28-.086-.119-.15-.26-.192-.42-.042-.162-.063-.335-.063-.521l.015-.563.039-.602.052-.547.056-.402.024-.186.015-.203.007-.192.003-.151.039-.171.114-.237c.051-.079.111-.149.182-.209.069-.061.148-.091.236-.091.137 0 .242.028.317.085.075.058.112.162.112.315l-.034.208-.083.358-.109.466-.11.533-.083.559s-.034.369-.034.542c0 .14.013.27.036.388.025.119.058.222.098.309.041.086.089.153.145.202l.176.073c.156 0 .312-.028.467-.086.154-.057.324-.153.51-.29s.393-.317.623-.542c.229-.225.498-.503.808-.835l.288-.31.259-.286.269-.3.317-.364.127-.063c.056 0 .104.026.149.078.043.052.065.127.065.225l-.02.156-.075.186zm-2.671-3.999c0 .078-.021.179-.063.303l-.151.361-.183.3c-.064.084-.115.125-.154.125l-.156-.018-.19-.053-.161-.091-.068-.127.024-.132.054-.122.054-.142.024-.186c0-.146.037-.273.112-.381s.178-.161.308-.161l.142.005.183.034.159.095c.044.047.066.109.066.19zM245.904 31.149c-.186.107-.38.192-.584.254-.203.062-.412.093-.627.093l-.161-.044-.215-.122-.186-.19s-.076-.156-.073-.244l.049-.293-.103-.029-.091-.024-.07-.041-.044-.081-.022-.244c-.001-.107.013-.264.042-.469l.085-.563.105-.66.129-.727.149-.77.142-.664.154-.669.148-.596.132-.444c.068-.205.131-.37.188-.496.057-.125.112-.221.168-.287.056-.067.114-.112.176-.135l.2-.034c.179 0 .269.164.269.493 0 .153-.019.313-.057.48-.037.168-.083.34-.139.516l-.178.527-.179.522-.156.485-.188.628-.212.794c-.075.294-.151.624-.229.988.186-.329.398-.643.64-.939.241-.299.486-.562.737-.789s.497-.409.74-.545c.242-.135.461-.202.656-.202.124 0 .236.032.337.095.101.064.188.147.261.252.074.104.131.223.172.354.04.133.061.267.061.403 0 .104-.014.222-.041.354-.028.131-.068.272-.12.422l-.192.469c-.077.163-.164.327-.262.493.371-.257.705-.521 1.004-.791.297-.271.559-.537.783-.801s.413-.52.566-.767.271-.476.352-.684l.063-.146.073-.132.08-.095.081-.037c.065 0 .116.029.153.088.038.059.057.135.057.229l-.021.13-.055.195-.063.202-.052.151c-.071.169-.163.352-.276.547-.111.195-.248.397-.407.605s-.342.419-.547.633c-.205.213-.435.42-.688.622-.127.101-.282.214-.467.339l-.576.384-.598.378-.535.325-.385.228-.149.08-.004-.004zm1.226-3.759c-.156 0-.324.05-.503.149-.179.099-.36.229-.545.393-.184.163-.363.35-.539.562s-.337.428-.483.649-.274.44-.384.656c-.108.217-.188.413-.236.589.046.095.105.18.178.257.074.076.172.114.296.114.12 0 .252-.022.396-.065.144-.045.281-.098.412-.159l.357-.192.227-.169.239-.273.251-.361.24-.41c.076-.144.143-.285.199-.425.058-.14.104-.274.137-.402.035-.129.052-.244.052-.345l-.029-.205-.073-.183-.096-.13-.096-.05zM253.99 28.771l-.066.132-.173.195-.244.225-.273.22c-.495.378-.931.662-1.306.852-.377.191-.713.286-1.009.286-.13 0-.265-.03-.403-.091-.138-.06-.264-.162-.378-.307-.114-.146-.208-.338-.28-.576-.074-.24-.11-.54-.11-.901l.02-.493.052-.571.07-.608.083-.607.088-.564.083-.48.076-.376.085-.388.085-.367.081-.31.107-.276.156-.277.188-.215c.066-.058.134-.086.202-.086l.181.029.107.086.051.129.013.161c0 .134-.026.31-.078.53-.052.219-.114.453-.188.7l-.222.747-.186.669-.054.283-.054.378-.046.439-.039.462-.027.449-.01.405c0 .261.021.471.061.633.041.16.094.287.159.378s.139.152.22.183c.081.031.163.047.244.047.134 0 .271-.021.415-.063s.297-.107.462-.195c.164-.088.342-.198.534-.329.192-.133.403-.288.635-.467l.169-.142.134-.124.107-.088.093-.032.127.068s.058.127.058.247zM258.272 28.405c0 .114-.042.237-.127.371s-.205.283-.361.449c-.179.188-.376.364-.591.524-.215.162-.437.302-.664.42-.228.119-.459.213-.693.281s-.461.103-.679.103c-.511 0-.906-.164-1.187-.493s-.42-.811-.42-1.445c0-.202.018-.408.054-.617.036-.211.089-.418.159-.623.069-.205.157-.403.264-.596.105-.192.229-.371.368-.537l.293-.308s.227-.198.356-.28c.13-.084.272-.151.428-.203.154-.052.322-.078.505-.078.13 0 .247.025.352.076.104.05.192.114.264.192s.126.166.163.264c.038.098.057.193.057.288 0 .198-.054.399-.161.604-.107.203-.259.408-.454.615-.195.206-.43.413-.703.619-.273.207-.578.413-.913.618l-.137.085-.068.115c0 .098.013.2.039.308s.073.206.142.296c.068.089.16.163.275.222.116.059.264.088.442.088.228 0 .46-.036.696-.11.235-.072.467-.175.693-.305.226-.13.445-.285.658-.464.214-.179.413-.373.599-.581.104-.114.188-.171.249-.171l.078.063.024.21zm-2.265-2.085l-.029-.098-.071-.073-.088-.046-.08-.018c-.144 0-.29.051-.439.154-.149.102-.29.244-.42.427s-.244.398-.342.649-.164.522-.2.815l.181-.127.242-.183.258-.203.232-.19.371-.339.232-.273c.057-.084.097-.165.119-.244l.034-.251z"/><rect x="5.25" y="6.281" width="7.297" height="1.516" fill="none"/><path fill="#fff" d="M5.318 6.997v-.056l.152.048.125-.034.042-.095-.029-.086-.124-.087-.134-.103-.028-.097.058-.126.153-.051.125.021v.051l-.131-.028-.113.036-.042.091.028.085.124.086.13.099.033.1-.056.131-.158.051-.083-.011-.072-.025z"/><path fill="#fff" d="M5.838 6.773l.048.161.13.058.164-.062v.048l-.173.056c-.064 0-.117-.023-.156-.069s-.06-.111-.06-.196c0-.073.021-.134.063-.185.041-.05.095-.075.162-.075.062 0 .11.022.143.065l.05.179v.02h-.371zm.323-.041l-.041-.134-.107-.048-.117.047-.056.135h.321z"/><path fill="#fff" d="M6.568 6.568l-.053-.016-.099.061-.04.173v.235h-.044v-.5h.044v.111h.002l.054-.089.086-.032.05.009v.048z"/><path fill="#fff" d="M7.042 6.984c0 .094-.021.163-.062.207s-.105.065-.191.065l-.149-.038v-.047l.15.044c.138 0 .207-.073.207-.219v-.064h-.002c-.039.068-.099.102-.18.102-.062 0-.112-.022-.151-.067-.039-.045-.058-.107-.058-.187s.021-.145.063-.195.097-.076.166-.076c.074 0 .127.03.16.091h.002v-.079h.045v.463zm-.045-.271l-.045-.115-.116-.048-.133.062-.05.164.046.159.122.057.128-.052.048-.128v-.099z"/><path fill="#fff" d="M7.213 6.773l.048.161.13.058.164-.062v.048l-.173.056c-.064 0-.117-.023-.156-.069s-.06-.111-.06-.196c0-.073.021-.134.063-.185.041-.05.095-.075.161-.075.062 0 .11.022.143.065l.05.179v.02h-.37zm.323-.041l-.041-.134-.107-.048-.117.047-.057.135h.322z"/><path fill="#fff" d="M7.829 7.124l-.061.1-.085.032-.039-.007v-.044l.041.007.095-.083.046-.111-.189-.497h.05l.151.407.007.02.004.017h.002l.012-.034.161-.41h.049l-.244.603z"/><path fill="#fff" d="M8.804 7.021l-.298-.334-.012-.017h-.002v.351h-.048v-.7h.048v.33h.002l.013-.017.283-.313h.063l-.307.34.326.361h-.068z"/><path fill="#fff" d="M9.301 7.021v-.3l-.032-.13-.101-.041-.113.05-.049.145v.277h-.045v-.74h.045v.33h.002c.04-.068.097-.102.172-.102l.124.052.042.15v.31h-.045z"/><path fill="#fff" d="M9.697 7.034c-.073 0-.13-.024-.173-.072-.043-.048-.064-.111-.064-.188 0-.083.022-.148.066-.195.045-.047.103-.07.176-.07.071 0 .127.023.169.07s.062.111.062.193c0 .078-.021.141-.063.189-.042.049-.1.073-.173.073zm.003-.484l-.141.06-.053.166.051.158.14.06.139-.059.049-.163-.048-.164-.137-.058z"/><path fill="#fff" d="M10.343 7.021l-.239-.247h-.002v.247h-.045v-.74h.045v.477h.002l.227-.237h.058l-.237.242.256.258h-.065z"/><path fill="#fff" d="M10.841 7.021v-.3l-.032-.13-.101-.042-.113.05-.049.144v.277h-.045v-.74h.045v.33h.002c.04-.068.097-.102.172-.102l.124.052.042.15v.31h-.045z"/><path fill="#fff" d="M11.036 7.021v-.74h.045v.74h-.045z"/><path fill="#fff" d="M11.442 7.034c-.073 0-.13-.024-.173-.072-.042-.048-.063-.111-.063-.188 0-.083.022-.148.066-.195.045-.047.103-.07.176-.07.071 0 .127.023.169.07s.062.111.062.193c0 .078-.021.141-.063.189-.043.049-.101.073-.174.073zm.003-.484l-.141.06-.053.166.051.158.14.06.139-.059.049-.163-.048-.164-.137-.058z"/><path fill="#fff" d="M11.966 7.021h-.041l-.193-.5h.05l.149.398.015.052h.002l.014-.05.154-.4h.049l-.199.5z"/></svg>