<svg baseProfile="tiny" xmlns="http://www.w3.org/2000/svg" width="700" height="200"><rect x="13.834" y="26.337" width="697.284" height="173.663" fill="none"/><path fill="#fff" d="M165.276 31.351c0 1.77-.689 3.392-2.064 4.866-1.376 1.475-2.901 2.212-4.571 2.212-.885 0-1.819-.147-2.802-.442-.984-.295-1.77-.564-2.359-.811-.049 0-.639-.246-1.77-.737-3.196 55.593-10.79 96.169-22.783 121.729-3.146 6.636-6.882 9.954-11.207 9.954-12.191 0-21.26-24.012-27.207-72.035-7.815 23.25-14.255 39.594-19.317 49.031-5.703 10.715-11.33 16.072-16.884 16.072-3.834 0-7.422-2.311-10.765-6.93-3.196-4.424-6.661-11.674-10.396-21.751-7.422-20.153-11.133-50.406-11.133-90.762v-5.309c-.984.099-2.286.32-3.908.664-1.376.295-2.359.442-2.949.442-4.915 0-7.373-2.531-7.373-7.594 0-5.947 7.864-8.921 23.594-8.921 7.324 0 13.198.922 17.622 2.765 4.424 1.844 6.636 4.142 6.636 6.894 0 5.26-2.359 7.889-7.078 7.889-1.18 0-2.975-.343-5.382-1.032-2.654-.786-4.792-1.253-6.415-1.401l-.295 18.433c0 36.62 6.094 66.457 18.285 89.508 7.569-10.469 16.171-31.457 25.806-62.965 1.719-5.605 3.439-12.51 5.16-20.72 1.425-6.783 2.555-11.108 3.392-12.977 1.327-2.998 3.269-4.498 5.825-4.498 3.587 0 5.923 1.696 7.004 5.087.737 2.409 1.106 7.422 1.106 15.041 0 1.229-.025 2.691-.074 4.387-.049 1.696-.074 2.741-.074 3.134 0 29.886 4.891 55.962 14.672 78.228 10.322-26.346 16.859-64.292 19.612-113.839-.737.049-1.991.271-3.76.664-1.475.344-2.63.516-3.465.516-4.818 0-7.226-2.507-7.226-7.521 0-5.751 6.586-8.626 19.76-8.626 6.684 0 12.239 1.18 16.663 3.539 4.08 2.212 6.12 4.818 6.12 7.816z"/><path fill="#fff" d="M246.085 92.326c0 14.452-4.228 25.965-12.682 34.542-8.455 8.578-19.735 12.866-33.842 12.866-11.699 0-20.866-3.993-27.501-11.981-6.636-7.987-9.954-19.083-9.954-33.289 0-14.942 4.006-26.543 12.018-34.801 7.864-8.11 18.776-12.166 32.736-12.166 11.698 0 21.161 4.104 28.386 12.313 7.226 8.21 10.839 19.048 10.839 32.516zm-14.672.147c0-9.88-2.396-17.609-7.189-23.188-4.792-5.579-11.343-8.369-19.649-8.369-18.532 0-27.796 11.133-27.796 33.4 0 10.273 2.015 18.175 6.046 23.704 4.03 5.53 9.806 8.295 17.327 8.295 9.732 0 17.375-2.974 22.93-8.921 5.553-5.947 8.331-14.254 8.331-24.921z"/><path fill="#fff" d="M315.539 72.418c0 1.869-.565 3.441-1.696 4.719-1.131 1.279-2.482 1.917-4.055 1.917-1.18 0-2.925-.859-5.235-2.581-2.311-1.72-4.399-2.581-6.267-2.581-4.67 0-8.455 2.053-11.354 6.157-2.901 4.104-4.35 9.647-4.35 16.626v9.658c0 10.766-1.131 19.318-3.392 25.658-2.114 5.948-4.842 8.922-8.184 8.922-4.473 0-6.709-2.212-6.709-6.636 0-.885.688-4.141 2.064-9.77 1.375-5.628 2.064-10.923 2.064-15.889 0-13.762-1.966-24.773-5.898-33.031-.099-.246-1.45-2.728-4.055-7.447-1.327-2.408-1.991-4.325-1.991-5.751 0-1.573.762-3.047 2.286-4.424 1.523-1.375 3.17-2.064 4.94-2.064 5.209 0 9.536 6.39 12.977 19.17 5.112-9.831 12.559-14.746 22.34-14.746 4.915 0 8.896 1.143 11.944 3.428 3.047 2.288 4.571 5.176 4.571 8.665z"/><path fill="#fff" d="M347.096 145.043c0 3.342-.221 5.628-.664 6.857-.836 2.162-2.673 3.244-5.51 3.244-4.645 0-7.383-3.786-8.215-11.355-1.418-12.779-2.126-30.277-2.126-52.496 0-24.822.342-40.084 1.026-45.787.782-6.242 3.252-9.364 7.409-9.364 4.895 0 7.343 2.975 7.343 8.921 0 1.475-.271 7.336-.811 17.585-.542 10.248-.811 19.698-.811 28.349 0 7.57.393 17.364 1.18 29.381.785 12.02 1.179 20.241 1.179 24.665z"/><path fill="#fff" d="M445.82 34.374c0-.295-.295 3.392-.885 11.06-.639 8.897-1.18 18.359-1.621 28.386-.542 14.451-.812 29.837-.812 46.155 0 3.343.024 6.771.073 10.285.049 3.515.074 5.371.074 5.566 0 7.325-2.322 10.986-6.967 10.986-5.088 0-7.632-4.129-7.632-12.387 0-1.917.049-3.416.147-4.498-9.279 9.143-20.031 13.715-32.257 13.715-10.213 0-18.303-3.306-24.268-9.917-5.966-6.61-8.948-15.692-8.948-27.243 0-15.729 4.333-28.435 12.998-38.119 8.666-9.683 20.021-14.525 34.063-14.525 6.53 0 13.282 1.5 20.255 4.498.343-13.615.811-21.775 1.4-24.479 1.086-5.014 3.804-7.521 8.151-7.521 4.154.001 6.229 2.681 6.229 8.038zm-16.515 38.339c-6.431-4.03-12.885-6.046-19.364-6.046-10.014 0-17.915 3.454-23.706 10.359-5.793 6.907-8.688 16.283-8.688 28.128 0 8.111 1.95 14.415 5.852 18.912 3.902 4.498 9.289 6.746 16.161 6.746 8.638 0 15.215-2.875 19.73-8.626 1.277-1.917 2.528-3.858 3.756-5.825 1.423-2.064 3.19-3.292 5.301-3.686 0-13.812.319-27.133.958-39.962z"/><path fill="#fff" d="M592.396 44.77c0 4.424-3.022 6.636-9.068 6.636.835 0-4.522-.664-16.073-1.991-11.847-1.375-24.209-2.113-37.087-2.212 1.721 8.258 2.729 19.833 3.023 34.727 2.113.099 5.038.147 8.773.147 6.193 0 12.215-.258 18.064-.774s8.577-.774 8.184-.774c5.555 0 8.332 2.482 8.332 7.447 0 4.326-4.547 7.03-13.641 8.11-2.556.295-9.191.442-19.906.442h-9.807c-.345 24.184-1.082 40.282-2.212 48.294-1.475 10.42-4.399 15.631-8.774 15.631-4.62 0-6.93-2.385-6.93-7.152 0 1.622.577-3.92 1.732-16.626 1.154-12.706 1.732-26.285 1.732-40.736 0-21.48-1.058-37.282-3.17-47.409-5.703 1.131-9.732 1.696-12.092 1.696-5.457 0-8.185-2.531-8.185-7.594 0-6.537 13.688-9.806 41.067-9.806 17.597 0 32.613 1.106 45.05 3.318 7.326 1.326 10.988 4.202 10.988 8.626z"/><path fill="#fff" d="M613.263 145.043c0 3.342-.222 5.628-.663 6.857-.837 2.162-2.673 3.244-5.511 3.244-4.645 0-7.384-3.786-8.215-11.355-1.418-12.779-2.127-30.277-2.127-52.496 0-24.822.342-40.084 1.026-45.787.782-6.242 3.252-9.364 7.409-9.364 4.895 0 7.343 2.975 7.343 8.921 0 1.475-.271 7.336-.811 17.585-.542 10.248-.812 19.698-.812 28.349 0 7.57.393 17.364 1.18 29.381.787 12.02 1.181 20.241 1.181 24.665z"/><path fill="#fff" d="M688.394 52.143c0 6.193-2.507 16.91-7.521 32.146-4.621 14.058-12.928 31.877-24.921 53.455-2.409 4.865-4.842 9.732-7.3 14.598-2.113 3.785-4.62 5.678-7.52 5.678-1.722 0-3.281-.737-4.683-2.212-1.4-1.475-2.101-3.097-2.101-4.866 0-3.195 2.166-8.527 6.502-16 9.9-17.282 15.023-26.219 15.367-26.81-9.622-12.96-17.231-25.036-22.828-36.229-4.474-8.896-6.709-14.918-6.709-18.064 0-4.424 2.114-6.636 6.348-6.636 2.656 0 5.313 2.311 7.971 6.931 2.41 5.161 4.797 10.322 7.158 15.483 4.211 8.999 9.059 17.382 14.543 25.151 3.636-9.389 6.535-19.173 8.698-29.351 2.31-10.57 3.489-15.954 3.538-16.15 1.429-4.03 3.647-6.046 6.654-6.046 4.536 0 6.804 2.975 6.804 8.922z"/></svg>