<!-- Copyright (c) https://github.com/yandex-ui/nanoislands  -->
<svg xmlns="http://www.w3.org/2000/svg" width="32" height="32" viewBox="0 0 32 32"><linearGradient id="a" gradientUnits="userSpaceOnUse" x1="3.104" y1="20.212" x2="13.045" y2="30.153"><stop offset="0"/><stop offset="1" stop-opacity=".75"/></linearGradient><path fill-rule="evenodd" clip-rule="evenodd" fill="url(#a)" d="M16 29.03V31c-3.84.004-7.682-1.46-10.612-4.398C2.466 23.674 1.004 19.837 1 16h1.998c0 3.334 1.27 6.668 3.808 9.212 2.54 2.545 5.867 3.817 9.194 3.817z"/><linearGradient id="b" gradientUnits="userSpaceOnUse" x1="19.703" y1="29.414" x2="29.165" y2="19.952"><stop offset="0" stop-opacity=".75"/><stop offset="1" stop-opacity=".5"/></linearGradient><path fill-rule="evenodd" clip-rule="evenodd" fill="url(#b)" d="M26.602 26.602C23.674 29.53 19.838 30.995 16 31v-1.97c3.334-.002 6.67-1.274 9.213-3.818 2.543-2.544 3.815-5.878 3.815-9.212H31c-.005 3.837-1.47 7.674-4.398 10.602z"/><linearGradient id="c" gradientUnits="userSpaceOnUse" x1="30.344" y1="13.236" x2="18.757" y2="1.649"><stop offset="0" stop-opacity=".5"/><stop offset="1" stop-opacity=".25"/></linearGradient><path fill-rule="evenodd" clip-rule="evenodd" fill="url(#c)" d="M29.028 16c0-3.327-1.27-6.655-3.815-9.194C22.67 4.268 19.333 3 16 3V1c3.838.004 7.674 1.467 10.602 4.388C29.54 8.318 31.005 12.158 31 16h-1.972z"/><linearGradient id="d" gradientUnits="userSpaceOnUse" x1="2.247" y1="12.642" x2="12.643" y2="2.245"><stop offset="0" stop-opacity="0"/><stop offset="1" stop-opacity=".25"/></linearGradient><path fill-rule="evenodd" clip-rule="evenodd" fill="url(#d)" d="M16 3c-3.327 0-6.655 1.268-9.194 3.807S2.998 12.673 2.998 16H1C.995 12.16 2.457 8.318 5.388 5.388 8.318 2.458 12.158.996 16 1v2z"/><linearGradient id="e" gradientUnits="userSpaceOnUse" x1="10.248" y1="17.701" x2="14.887" y2="22.34"><stop offset="0"/><stop offset="1" stop-opacity=".75"/></linearGradient><path fill-rule="evenodd" clip-rule="evenodd" fill="url(#e)" d="M16 23c-1.79.002-3.585-.683-4.953-2.053C9.687 19.58 9.004 17.79 9 16h1.99c0 1.28.487 2.562 1.465 3.54.98.98 2.26 1.467 3.544 1.465V23z"/><linearGradient id="f" gradientUnits="userSpaceOnUse" x1="6.68" y1="18.953" x2="13.97" y2="26.243"><stop offset="0"/><stop offset="1" stop-opacity=".75"/></linearGradient><path fill-rule="evenodd" clip-rule="evenodd" fill="url(#f)" d="M16 24.99V27c-2.817.005-5.635-1.07-7.783-3.227C6.077 21.627 5.004 18.813 5 16h2.005c.004 2.3.88 4.6 2.63 6.35 1.756 1.764 4.062 2.643 6.365 2.64z"/><linearGradient id="g" gradientUnits="userSpaceOnUse" x1="17.46" y1="21.991" x2="21.875" y2="17.576"><stop offset="0" stop-opacity=".75"/><stop offset="1" stop-opacity=".5"/></linearGradient><path fill-rule="evenodd" clip-rule="evenodd" fill="url(#g)" d="M16 23v-1.995c1.28-.002 2.56-.49 3.537-1.465.98-.978 1.47-2.26 1.47-3.54H23c-.003 1.79-.687 3.58-2.052 4.947S17.792 22.997 16 23z"/><linearGradient id="h" gradientUnits="userSpaceOnUse" x1="22.423" y1="14.981" x2="17.015" y2="9.574"><stop offset="0" stop-opacity=".5"/><stop offset="1" stop-opacity=".25"/></linearGradient><path fill-rule="evenodd" clip-rule="evenodd" fill="url(#h)" d="M16 9c1.792.002 3.583.684 4.95 2.046C22.32 12.413 23.003 14.208 23 16h-1.993c0-1.273-.49-2.548-1.47-3.52-.976-.973-2.257-1.46-3.537-1.46V9z"/><linearGradient id="i" gradientUnits="userSpaceOnUse" x1="26.383" y1="14.11" x2="17.885" y2="5.612"><stop offset="0" stop-opacity=".5"/><stop offset="1" stop-opacity=".25"/></linearGradient><path fill-rule="evenodd" clip-rule="evenodd" fill="url(#i)" d="M16 7.006V5c2.814.004 5.627 1.076 7.774 3.217C25.93 10.367 27.004 13.183 27 16h-2.012c.005-2.303-.873-4.607-2.637-6.365C20.6 7.885 18.3 7.01 16 7.005z"/><linearGradient id="j" gradientUnits="userSpaceOnUse" x1="9.853" y1="14.704" x2="14.704" y2="9.852"><stop offset="0" stop-opacity="0"/><stop offset="1" stop-opacity=".25"/></linearGradient><path fill-rule="evenodd" clip-rule="evenodd" fill="url(#j)" d="M16 9v2.02c-1.283-.002-2.565.485-3.544 1.46-.977.973-1.465 2.247-1.465 3.52H9c-.002-1.79.68-3.586 2.047-4.953C12.415 9.68 14.21 8.997 16 9z"/><linearGradient id="k" gradientUnits="userSpaceOnUse" x1="6.049" y1="13.672" x2="13.673" y2="6.048"><stop offset="0" stop-opacity="0"/><stop offset="1" stop-opacity=".25"/></linearGradient><path fill-rule="evenodd" clip-rule="evenodd" fill="url(#k)" d="M16 5v2.006c-2.303-.004-4.61.872-6.366 2.63C7.877 11.392 7 13.695 7.004 16H5c-.004-2.817 1.067-5.634 3.217-7.783C10.365 6.067 13.183 4.997 16 5z"/><linearGradient id="l" gradientUnits="userSpaceOnUse" x1="18.574" y1="25.695" x2="25.513" y2="18.756"><stop offset="0" stop-opacity=".75"/><stop offset="1" stop-opacity=".5"/></linearGradient><path fill-rule="evenodd" clip-rule="evenodd" fill="url(#l)" d="M16 27v-2.01c2.3-.006 4.598-.884 6.352-2.64 1.755-1.752 2.633-4.052 2.637-6.35H27c-.004 2.813-1.08 5.626-3.226 7.772-2.147 2.15-4.96 3.224-7.774 3.228z"/></svg>